<svg id="Layer_1" data-name="Layer 1" xmlns="http://www.w3.org/2000/svg" viewBox="0 0 106 55"><defs><style>.cls-1,.cls-3,.cls-6{fill:#404041;}.cls-1{opacity:0.76;}.cls-2,.cls-7{fill:#dc3027;}.cls-4,.cls-6{font-size:8.73px;letter-spacing:0.12em;}.cls-4{fill:#fff;}.cls-4,.cls-6,.cls-7{font-family:TwCenMT-Regular, Tw Cen MT;}.cls-5{letter-spacing:0.07em;}.cls-7{font-size:8.92px;letter-spacing:0.02em;}.cls-8{letter-spacing:0.04em;}</style></defs><title>25 Years Logo</title><polygon class="cls-1" points="70.23 23.32 91.56 37.84 87.85 38.74 79.06 40.91 70.23 35.27 70.23 23.32"/><path class="cls-2" d="M49.86,37.9H65.41v5.45H37.52l20.8-22.11a8.2,8.2,0,0,0,2.34-5.65A9,9,0,0,0,58.2,9.31a7.7,7.7,0,0,0-5.81-2.66,8.65,8.65,0,0,0-5.17,1.76,8.47,8.47,0,0,0-3.16,5.45H38.68a14.18,14.18,0,0,1,4.76-9.37,13.91,13.91,0,0,1,9.31-3.35,12.39,12.39,0,0,1,9.32,4.21,14.11,14.11,0,0,1,4,10,12.78,12.78,0,0,1-1,5.12,18.49,18.49,0,0,1-3.56,5.05Z"/><path class="cls-2" d="M76.6,2.45H95V8H80.9l-2.2,7.82c1.63-.17,2.57-.26,2.83-.26a12.49,12.49,0,0,1,9.4,4.29,14.26,14.26,0,0,1,4,10.05,13.84,13.84,0,0,1-4.57,10.47,15.68,15.68,0,0,1-11.14,4.29q-8.37,0-13.53-7.27l5-3.18q3.69,4.62,8.75,4.62a9.62,9.62,0,0,0,6.91-2.61,8.68,8.68,0,0,0,2.74-6.57,8.51,8.51,0,0,0-2.83-6.48,9.88,9.88,0,0,0-7-2.64,9.75,9.75,0,0,0-4.29.88,18.89,18.89,0,0,0-4,2.8Z"/><path class="cls-3" d="M1.45,23.32H70.23V34.48a.79.79,0,0,1-.79.79h-68l2.91-6Z"/><text class="cls-4" transform="translate(7.92 31.9)">CELEBR<tspan class="cls-5" x="31.29" y="0">A</tspan><tspan x="37.17" y="0">TING</tspan></text><text class="cls-6" transform="translate(19.95 53.04)">OF GRAPHIC ERA</text><text class="cls-7" transform="translate(82.61 13.08)">y<tspan class="cls-8" x="4.64" y="0">ears</tspan></text></svg>