<svg id="Layer_1" data-name="Layer 1" xmlns="http://www.w3.org/2000/svg" viewBox="0 0 277 67"><defs><style>.cls-1,.cls-10{fill:#f48120;}.cls-2,.cls-4{fill:#dc3027;}.cls-3,.cls-5,.cls-7{fill:#231f20;}.cls-10,.cls-4,.cls-6,.cls-7{fill-rule:evenodd;}.cls-5{font-size:9.82px;font-family:Arial-BoldMT, Arial;font-weight:700;}.cls-6,.cls-9{fill:#fff;}.cls-8{fill:none;stroke:#231f20;stroke-miterlimit:2.61;stroke-width:0.5px;}</style></defs><title>GEU_Logo</title><rect class="cls-1" x="76.21" y="64.1" width="198.38" height="1.21"/><path class="cls-2" d="M76.21,24.8c0,4.79,3.07,11.3,9.5,11.3h.41c.72,0,1.69-.11,2.62-.11,1.86,0,4.05.11,5.58.11,1.94,0,4.17-.69,4.17-1.4a.75.75,0,0,0-.12-.4c-.61-.5-1.74-1-1.74-2v-7a2.69,2.69,0,0,1,1.74-2.56c.36-.18.64-.51.64-.68s-.44-.58-1.53-.58a19,19,0,0,1-3.48.25c-.85,0-2.22-.14-3.23-.14-.73,0-1.38.07-1.46.39,0,.08-.08.18-.08.25,0,1,2.1,1.15,2.1,2.57v4.4c0,.78,0,1.28-.85,1.53a15.5,15.5,0,0,1-3.11.46c-5.22,0-7.08-4.6-7.08-8.71.29-5.92,2.31-7.7,7.89-8.2,1.13,0,2.87,0,2.87,1s-1.17,1.29-2.31,2S82.32,20,82.32,22a1.88,1.88,0,0,0,2.1,1.79c1.29,0,1.94-.71,1.94-1.46a1.65,1.65,0,0,0-.24-.83c0-.07-.12-.25-.12-.32,0-1.35,4.2-2.67,7.15-4.1,1.17-.5,3.48-1.29,3.48-3.07,0-1.61-3.64-1.82-6.07-1.82H89c-10.19,0-12.82,5.93-12.82,12.63"/><path class="cls-2" d="M102.33,32.79c0,.79-.85,1-1.46,1.29a.93.93,0,0,0-.4.72,1,1,0,0,0,.69.83,4.36,4.36,0,0,0,1.73.32c.61,0,1.34-.07,2-.07s1.45.07,2.1.07a6,6,0,0,0,1.09-.07c.81-.11,1.45-.68,1.45-1.15a.8.8,0,0,0-.52-.65c-1.21-.5-1.5-.5-1.78-1.54V23.25c.57,0,1.94-.64,2.87-.64a.88.88,0,0,1,1,.64v.18c0,.79-1,2-1,2.69s.53.9,1.82,1c-.08-.07-.2-.11-.2-.18,0-.25,1-.46,1.94-.83a4.41,4.41,0,0,0,2.3-3.86c0-2-.85-3.65-3.48-3.65-2,0-4.4,2.9-5.25,2.9,0-.79.85-1,1.46-1.54a1.19,1.19,0,0,0,.32-.57c0-.25-.32-.54-1.21-.54h-6.07c-1,0-1.37.32-1.37.57s.36.65.77.79c.88.25,1.17.75,1.17,1.79Z"/><path class="cls-2" d="M131.27,30.73c-1.45,0-3.47.78-4.65.78-2.66-.28-3.23-1.28-3.23-2.82,0-1.86,3.84-3.4,5.86-4.15a1.6,1.6,0,0,0,1.21-1.43c0-.57-.56-1.14-1.73-1.14h-.37c-.93,0-2.46.25-3.47.25a2.62,2.62,0,0,1-1.22-.25c-.24-.18-.44-.4-.44-.5,0-.65,2.26-1,3.68-1,3.19,0,4.36,1,4.36,3.32ZM117.89,31c0,2.64,2.1,4.93,5.7,4.93.16,0,.53-.07.65-.07,1.82,0,3.27-.25,4.41-.25s3.19.25,4.93.25c2.83,0,4.2-.57,4.2-1.22,0-.39-.6-1-1.53-1.32v-9c0-4.07-2.11-5.43-4.41-5.43-1.17.07-2.22.14-3.19.14-1.86,0-3.6-.14-5.54-.14-.61,0-4.37.29-4.37,2.4s2.1,2.61,4.12,2.61a15.69,15.69,0,0,0,2.91-.33h.49c.44,0,.73.18.73.33s-.2.39-.65.42C121.93,25.54,117.89,27.33,117.89,31Z"/><path class="cls-2" d="M141.62,38.94c0,.51-.56.51-1.45,1.05a1,1,0,0,0-.57.68c0,.33.45.72.85.86a4,4,0,0,0,1.82.36c.73,0,1.54-.11,1.94-.11.61,0,1.33.07,2.06.07a6.35,6.35,0,0,0,1.13-.07c.73-.14,1.26-.71,1.26-1.11s-.25-.5-.69-.68-1.42-.54-1.42-1.05v-4.1a2.64,2.64,0,0,1-1-2.11,3.58,3.58,0,0,1,1-2.5V23a8,8,0,0,1,4.69-1.78c2,0,4.33,1.5,4.33,4.85,0,2.85-1.13,5.13-4,5.41-1.46,0-1.46-.28-1.74-1A2.9,2.9,0,0,0,146.84,29a1.72,1.72,0,0,1,.2.75c0,.93-1.09,1.81-1.09,2.56,0,2.29,1.74,3.84,5.29,3.84h.37c4.12,0,7.8-4,7.8-9-.28-5.85-3.23-8.53-7.32-8.53-3.15,0-4.69,2.14-5.82,2.68,0-.54.57-1,1.13-1.29a.44.44,0,0,0,.29-.46c0-.25-.29-.68-1.14-.68h-5.21c-1.09,0-1.66.5-1.66.82a.79.79,0,0,0,.49.57c.89.5,1.45.5,1.45,1.29Z"/><path class="cls-2" d="M163.7,33.3c-1.14.75-2,1-2,1.79,0,.5.89,1,1.46,1,.2,0,.44.07.57.07.64,0,1.17-.33,2.3-.33s1.82.33,2.38.33c.17,0,.37-.07.53-.07.85-.26,1.82-.76,1.82-1.26,0-.79-1.82-.79-2.1-1.82V22.47c1.45,0,2.38-.5,4.12-.75a2.44,2.44,0,0,1,2.31,2.53v9c-.57.75-2,.75-2,1.79,0,.5.85,1,2.31,1,.89,0,1.45-.26,2-.26.73,0,1.45.07,2.18.07a9.66,9.66,0,0,0,1.38-.07c.72-.07,1.09-.43,1.09-.75,0-.47-.65-1.14-2-1.54V22.47c0-2.79-2.95-3.65-5-3.65-3.2,0-4.61,1.61-6.43,2.11V14.74c1-.25,2.18-1,2.18-1.39s-.53-.64-1.9-.64h-5.78c-1.29,0-1.82.35-1.82.67A.73.73,0,0,0,162,14c.6.28,1.17.53,1.74.78Z"/><path class="cls-2" d="M186,33.33a4.55,4.55,0,0,1-1.45,1c-.29.14-.49.39-.49.53,0,.36.77.9,1.37,1a4.21,4.21,0,0,0,.93.07c.65,0,1.54-.07,2.23-.07s1.45.07,2.1.07a6.14,6.14,0,0,0,1.09-.07c.81-.11,1.46-.58,1.46-1,0-.18-.16-.43-.53-.57-.65-.5-1.78-.75-1.78-1.29V20.94c1.5-.33,2.23-.9,2.23-1.26s-.81-.85-1.94-.85h-6.07c-.81,0-1.33.39-1.33.71,0,.47.89,1.14,2.18,1.4ZM185.73,15c0,1.29,1.45,1.54,2.87,1.54s2.63-.5,2.63-1.54c0-1.53-1.74-1.53-2.63-1.53C186.29,13.46,185.73,14,185.73,15Z"/><path class="cls-2" d="M194.94,28.19c0,2.54,1.14,6.9,5.22,7.91.2,0,.57.07.85.07,1.29,0,3-.33,3.84-.33,1.13,0,2,.26,3.19.26,4.05,0,5.26-2.55,5.26-4.09s-.93-2.32-2.39-3.07c-.28,1.29-1.73,2.57-4.93,2.57-3.39,0-7.07-1.18-7.07-4.5,0,0,.08-.32.08-.43,0-3.08,1.17-6.4,5.29-6.4,1.3,0,2.87.71,2.87,1.39v.15c-.08.32-.44.42-.72.42s-.93-.17-1.58-.17a1.44,1.44,0,0,0-1.29,1.28,1.21,1.21,0,0,0,.72,1,.55.55,0,0,1,.49-.42c.52,0,1.09,1.46,3.27,1.46a3.09,3.09,0,0,0,3.16-3.07c0-3.65-4.9-3.9-6.35-3.9-9.06.25-9.91,7-9.91,9.87"/><path class="cls-3" d="M219,31.23c-.2,1.93-4.12,2.39-4.12,3.29l.08,0c.36,1.11,2.91,1.36,5.33,1.36,1.38,0,3-.07,4-.07,2,0,4.49.22,6.63.22,3.28,0,6-.54,6.15-3.29,0-1.79-.85-2.54-2-2.79-.57,1.53-2.67,1.53-4.41,1.53-.36,0-1,0-1.49,0-2.39,0-5.5-.25-5.5-2.11v-4.9a3.45,3.45,0,0,1-1.7-2.43c0-1,.89-2.11,2-3V15.27c.36-1,1.78-1.28,2.95-1.28s3.2.29,3.2,1.28-4.05,2.81-5.5,4.09c-.93.82-1.82,1.57-1.82,2.61s.89,2.28,2.95,2.28a7.71,7.71,0,0,0,3.48-.75,3.52,3.52,0,0,1,1.09-.25,1.14,1.14,0,0,1,1.25,1,1.89,1.89,0,0,0,1.42-2c-.29-1.72-1.78-2.29-3.24-2.29a8.83,8.83,0,0,0-3.39.75,5.69,5.69,0,0,1-.65.21.29.29,0,0,1-.28-.21c0-.18.32-.64,1.21-1,1.74-.85,9.62-3.91,9.62-5.94,0-1-.89-1.57-4.69-1.57H220.78c-2.31,0-5.5.57-5.5,1.57C215.56,15.27,219,15,219,16.8Z"/><path class="cls-3" d="M240.55,32.79c0,.79-.85,1-1.46,1.29a.93.93,0,0,0-.4.72,1,1,0,0,0,.68.83,4.44,4.44,0,0,0,1.74.32c.61,0,1.34-.07,2-.07s1.46.07,2.11.07a6,6,0,0,0,1.09-.07c.81-.11,1.45-.68,1.45-1.15a.8.8,0,0,0-.52-.65c-1.22-.5-1.5-.5-1.78-1.54V23.25c.56,0,1.94-.64,2.87-.64a.88.88,0,0,1,1,.64v.18c0,.79-1,2-1,2.69s.52.9,1.82,1c-.08-.07-.2-.11-.2-.18,0-.25,1-.46,1.94-.83a4.43,4.43,0,0,0,2.3-3.86c0-2-.85-3.65-3.48-3.65-2,0-4.4,2.9-5.25,2.9,0-.79.85-1,1.45-1.54a1.15,1.15,0,0,0,.33-.57c0-.25-.33-.54-1.22-.54H240c-1,0-1.37.32-1.37.57s.36.65.76.79c.89.25,1.18.75,1.18,1.79Z"/><path class="cls-3" d="M268.49,30.73c-1.45,0-3.48.78-4.65.78-2.67-.28-3.23-1.28-3.23-2.82,0-1.86,3.84-3.4,5.86-4.15a1.6,1.6,0,0,0,1.21-1.43c0-.57-.56-1.14-1.74-1.14h-.36c-.93,0-2.47.25-3.48.25a2.61,2.61,0,0,1-1.21-.25c-.24-.18-.44-.4-.44-.5,0-.65,2.26-1,3.68-1,3.19,0,4.36,1,4.36,3.32ZM255.11,31c0,2.64,2.1,4.93,5.7,4.93.16,0,.53-.07.65-.07,1.82,0,3.27-.25,4.4-.25s3.2.25,4.94.25c2.83,0,4.2-.57,4.2-1.22,0-.39-.61-1-1.54-1.32v-9c0-4.07-2.1-5.43-4.4-5.43-1.18.07-2.23.14-3.2.14-1.86,0-3.59-.14-5.53-.14-.61,0-4.37.29-4.37,2.4s2.1,2.61,4.12,2.61A15.69,15.69,0,0,0,263,23.5h.49c.44,0,.73.18.73.33a.67.67,0,0,1-.65.42C259.15,25.54,255.11,27.33,255.11,31Z"/><path class="cls-4" d="M272.25,57.74l-1-2.57-.94,2.57Zm2.57,2.76H273.3l-.6-1.58h-2.79l-.57,1.58h-1.49l2.7-7H272Zm-11-2.94a1.32,1.32,0,0,0-.3-.89.92.92,0,0,0-.69-.3.93.93,0,0,0-.72.32,1.25,1.25,0,0,0-.28.87Zm-.08,1.35,1.33.22a2.13,2.13,0,0,1-.81,1.11,2.34,2.34,0,0,1-1.38.39,2.25,2.25,0,0,1-1.94-.86,3.3,3.3,0,0,1,.15-3.71,2.18,2.18,0,0,1,1.66-.71,2.26,2.26,0,0,1,1.77.74,3.32,3.32,0,0,1,.62,2.28h-3.33a1.34,1.34,0,0,0,.32.93,1,1,0,0,0,.76.33.84.84,0,0,0,.53-.17A1.09,1.09,0,0,0,263.72,58.91Zm-7.78-1a2.42,2.42,0,0,0,.22,1.17,1,1,0,0,0,.9.53,1,1,0,0,0,.78-.4,1.78,1.78,0,0,0,.33-1.17,2,2,0,0,0-.32-1.25,1,1,0,0,0-.8-.39,1,1,0,0,0-.79.38A1.73,1.73,0,0,0,255.94,57.88Zm3.56,2.62h-1.24v-.74a2,2,0,0,1-.73.65,1.89,1.89,0,0,1-.85.22,2,2,0,0,1-1.49-.7,2.88,2.88,0,0,1-.62-2,2.76,2.76,0,0,1,.61-1.95,2,2,0,0,1,3,0V53.54h1.33Zm-7.25-2.41a5.89,5.89,0,0,1-.81.2,2.4,2.4,0,0,0-.73.24.56.56,0,0,0-.26.47.66.66,0,0,0,.21.48.72.72,0,0,0,.53.2,1.21,1.21,0,0,0,.69-.23.85.85,0,0,0,.32-.44,3,3,0,0,0,.05-.65ZM250.46,57l-1.2-.21a1.86,1.86,0,0,1,.7-1.09,2.5,2.5,0,0,1,1.48-.36,3.23,3.23,0,0,1,1.33.21,1.31,1.31,0,0,1,.61.54,2.71,2.71,0,0,1,.18,1.19l0,1.56a5.87,5.87,0,0,0,.06,1,3,3,0,0,0,.24.67h-1.32c0-.09-.08-.22-.13-.39a1.27,1.27,0,0,0,0-.15,2.44,2.44,0,0,1-.73.5,2.12,2.12,0,0,1-.83.17,1.67,1.67,0,0,1-1.22-.43,1.38,1.38,0,0,1-.45-1.06,1.46,1.46,0,0,1,.2-.76,1.33,1.33,0,0,1,.58-.52,4.82,4.82,0,0,1,1-.31,6.85,6.85,0,0,0,1.3-.32v-.14a.68.68,0,0,0-.19-.55,1.15,1.15,0,0,0-.72-.17.79.79,0,0,0-.88.64ZM247,60.5h-1.33v-5h1.24v.71a2.07,2.07,0,0,1,.57-.66,1,1,0,0,1,.58-.16,1.81,1.81,0,0,1,.88.25l-.42,1.16a1.18,1.18,0,0,0-.62-.21.76.76,0,0,0-.48.15,1.08,1.08,0,0,0-.31.56A8.27,8.27,0,0,0,247,59ZM241.38,58V56.77h3v2.77a3.73,3.73,0,0,1-1.28.76,4.54,4.54,0,0,1-1.69.33,3.84,3.84,0,0,1-1.9-.46,3,3,0,0,1-1.22-1.31A4.29,4.29,0,0,1,237.9,57a4,4,0,0,1,.46-1.94,3,3,0,0,1,1.33-1.29,3.49,3.49,0,0,1,1.66-.35,3.35,3.35,0,0,1,2,.54,2.51,2.51,0,0,1,.93,1.51l-1.4.26a1.45,1.45,0,0,0-.55-.81,1.64,1.64,0,0,0-1-.3,1.9,1.9,0,0,0-1.46.59,2.47,2.47,0,0,0-.54,1.73,2.7,2.7,0,0,0,.55,1.86,1.82,1.82,0,0,0,1.44.62,2.5,2.5,0,0,0,.88-.17,3.21,3.21,0,0,0,.76-.42V58Zm-10.57-4.41v2.58a2,2,0,0,1,1.55-.77,2.07,2.07,0,0,1,.84.17,1.41,1.41,0,0,1,.56.44,1.57,1.57,0,0,1,.26.59,5.74,5.74,0,0,1,.07,1v3h-1.33V57.84a3.82,3.82,0,0,0-.08-1,.61.61,0,0,0-.27-.34.83.83,0,0,0-.49-.13,1.12,1.12,0,0,0-.6.16,1,1,0,0,0-.38.49,2.59,2.59,0,0,0-.13,1V60.5h-1.33v-7Zm-2.24,1.92v1.06h-.91v2a5.15,5.15,0,0,0,0,.72.3.3,0,0,0,.12.17.35.35,0,0,0,.23.07,1.58,1.58,0,0,0,.53-.13l.12,1a2.69,2.69,0,0,1-1.05.2,1.51,1.51,0,0,1-.65-.13.87.87,0,0,1-.42-.31,1.07,1.07,0,0,1-.19-.52,6.51,6.51,0,0,1,0-1v-2.2h-.62V55.46h.62v-1l1.33-.79v1.79Zm-5,5v-5h1.33v5Zm0-5.72V53.54h1.33v1.24ZM217,60.5l-1.6-5h1.3l.94,3.3.87-3.3h1.29l.83,3.3,1-3.3h1.31l-1.62,5H220l-.86-3.24-.86,3.24Zm-6.19-2.56,1.36.41a3.11,3.11,0,0,1-1,1.71,3.26,3.26,0,0,1-4.13-.39,3.61,3.61,0,0,1-.89-2.59,3.84,3.84,0,0,1,.89-2.7,3.09,3.09,0,0,1,2.36-1,2.94,2.94,0,0,1,2.08.75,2.85,2.85,0,0,1,.71,1.29l-1.39.33a1.39,1.39,0,0,0-.52-.85,1.47,1.47,0,0,0-.95-.32,1.58,1.58,0,0,0-1.25.56,2.67,2.67,0,0,0-.49,1.8,2.88,2.88,0,0,0,.48,1.87,1.53,1.53,0,0,0,1.23.56,1.44,1.44,0,0,0,1-.35A2.09,2.09,0,0,0,210.76,57.94Zm-7.77-.2-1-2.57-.94,2.57Zm2.57,2.76H204l-.6-1.58h-2.79l-.58,1.58h-1.48l2.7-7h1.48ZM196,57.74l-1-2.57-.94,2.57Zm2.57,2.76H197l-.6-1.58h-2.79l-.58,1.58h-1.49l2.7-7h1.49Zm-13.28,0v-7h1.37l2.86,4.67V53.54h1.3v7h-1.41l-2.81-4.57V60.5Zm-8.75-5h1.42L179.14,59l1.18-3.57h1.38l-1.78,4.85-.32.88a3.73,3.73,0,0,1-.34.67,1.27,1.27,0,0,1-.36.37,1.5,1.5,0,0,1-.51.23,2.82,2.82,0,0,1-.68.08,3.84,3.84,0,0,1-.76-.08l-.12-1a3.07,3.07,0,0,0,.57.06.85.85,0,0,0,.69-.27,2,2,0,0,0,.34-.7Zm-4,2.42a2.2,2.2,0,0,0,.25,1.16,1.05,1.05,0,0,0,.92.54,1,1,0,0,0,.76-.38,1.91,1.91,0,0,0,.31-1.19,2,2,0,0,0-.32-1.25,1,1,0,0,0-.8-.39,1,1,0,0,0-.8.38A1.69,1.69,0,0,0,172.47,57.88Zm-1.31,2.62v-7h1.33v2.51a1.91,1.91,0,0,1,1.46-.7,1.93,1.93,0,0,1,1.52.67,2.72,2.72,0,0,1,.61,1.92,2.93,2.93,0,0,1-.62,2,1.92,1.92,0,0,1-1.49.7,1.78,1.78,0,0,1-.85-.23,2,2,0,0,1-.72-.64v.74Zm-7.5-2.62a2.3,2.3,0,0,0,.22,1.17,1,1,0,0,0,.9.53,1,1,0,0,0,.78-.4,1.83,1.83,0,0,0,.32-1.17,2,2,0,0,0-.31-1.25,1,1,0,0,0-1.59,0A1.68,1.68,0,0,0,163.66,57.88Zm3.55,2.62H166v-.74a2.13,2.13,0,0,1-.73.65,1.92,1.92,0,0,1-.85.22,1.94,1.94,0,0,1-1.49-.7,3.44,3.44,0,0,1,0-3.91,2,2,0,0,1,1.53-.67,1.91,1.91,0,0,1,1.46.7V53.54h1.33Zm-7-2.94a1.32,1.32,0,0,0-.3-.89.92.92,0,0,0-.69-.3.93.93,0,0,0-.72.32,1.25,1.25,0,0,0-.28.87Zm-.08,1.35,1.33.22a2.13,2.13,0,0,1-.81,1.11,2.34,2.34,0,0,1-1.38.39,2.23,2.23,0,0,1-1.94-.86,3.3,3.3,0,0,1,.15-3.71,2.18,2.18,0,0,1,1.66-.71,2.26,2.26,0,0,1,1.77.74,3.32,3.32,0,0,1,.62,2.28h-3.33a1.34,1.34,0,0,0,.32.93,1,1,0,0,0,.76.33.84.84,0,0,0,.53-.17A1.09,1.09,0,0,0,160.1,58.91Zm-3.85-3.45v1.06h-.91v2a4.45,4.45,0,0,0,0,.72.23.23,0,0,0,.12.17.32.32,0,0,0,.22.07,1.63,1.63,0,0,0,.54-.13l.11,1a2.69,2.69,0,0,1-1.05.2,1.51,1.51,0,0,1-.65-.13.93.93,0,0,1-.42-.31,1.32,1.32,0,0,1-.19-.52,6.51,6.51,0,0,1,0-1v-2.2h-.61V55.46H154v-1l1.33-.79v1.79Zm-5,5v-5h1.33v5Zm0-5.72V53.54h1.33v1.24Zm-4.86,3.1a2.3,2.3,0,0,0,.22,1.17,1,1,0,0,0,.9.53,1,1,0,0,0,.78-.4,1.83,1.83,0,0,0,.32-1.17,2,2,0,0,0-.31-1.25,1,1,0,0,0-1.59,0A1.68,1.68,0,0,0,146.39,57.88Zm3.55,2.62h-1.23v-.74a2.13,2.13,0,0,1-.73.65,1.92,1.92,0,0,1-.85.22,1.94,1.94,0,0,1-1.49-.7,3.44,3.44,0,0,1,0-3.91,2,2,0,0,1,1.53-.67,1.91,1.91,0,0,1,1.46.7V53.54h1.33Zm-7-2.94a1.32,1.32,0,0,0-.3-.89.92.92,0,0,0-.69-.3.93.93,0,0,0-.72.32,1.25,1.25,0,0,0-.28.87Zm-.08,1.35,1.33.22a2.13,2.13,0,0,1-.81,1.11,2.34,2.34,0,0,1-1.38.39,2.25,2.25,0,0,1-1.94-.86,3.3,3.3,0,0,1,.15-3.71,2.18,2.18,0,0,1,1.66-.71,2.26,2.26,0,0,1,1.77.74,3.32,3.32,0,0,1,.62,2.28H140.9a1.34,1.34,0,0,0,.32.93,1,1,0,0,0,.76.33.84.84,0,0,0,.53-.17A1.09,1.09,0,0,0,142.83,58.91Zm-5.42,1.59h-1.33v-5h1.23v.71a2.07,2.07,0,0,1,.57-.66,1.06,1.06,0,0,1,.58-.16,1.75,1.75,0,0,1,.88.25l-.41,1.16a1.24,1.24,0,0,0-.63-.21.73.73,0,0,0-.47.15,1,1,0,0,0-.31.56,8.27,8.27,0,0,0-.11,1.69ZM135.12,57l-1.31.24a.91.91,0,0,0-.3-.59.93.93,0,0,0-.61-.2,1,1,0,0,0-.79.35,1.74,1.74,0,0,0-.3,1.15,2.06,2.06,0,0,0,.3,1.27,1,1,0,0,0,.81.37.87.87,0,0,0,.62-.22,1.31,1.31,0,0,0,.34-.74l1.31.22a2.25,2.25,0,0,1-.78,1.36,2.41,2.41,0,0,1-1.55.47,2.32,2.32,0,0,1-1.76-.7,3.18,3.18,0,0,1,0-3.88,2.31,2.31,0,0,1,1.78-.7,2.37,2.37,0,0,1,1.46.4A2.08,2.08,0,0,1,135.12,57Zm-5.4,0-1.31.24a.91.91,0,0,0-.3-.59.93.93,0,0,0-.61-.2,1,1,0,0,0-.79.35,1.74,1.74,0,0,0-.3,1.15,2.06,2.06,0,0,0,.3,1.27,1,1,0,0,0,.81.37.87.87,0,0,0,.62-.22,1.31,1.31,0,0,0,.34-.74l1.31.22a2.35,2.35,0,0,1-.78,1.36,2.41,2.41,0,0,1-1.55.47,2.3,2.3,0,0,1-1.76-.7,3.18,3.18,0,0,1,0-3.88,2.31,2.31,0,0,1,1.78-.7,2.39,2.39,0,0,1,1.46.4A2.18,2.18,0,0,1,129.72,57Zm-7.7.79-1-2.57-.94,2.57Zm2.57,2.76h-1.52l-.6-1.58h-2.79l-.57,1.58h-1.49l2.7-7h1.48Z"/><text class="cls-5" transform="translate(151.24 47.45) scale(1.03 1)">(Deemed to be University)</text><path class="cls-6" d="M2.61,39.35l2.12-.57c-.13-.78-.24-1.57-.31-2.37H2.23Q2.11,35,2.11,33.59t.12-2.82H4.42c.07-.79.18-1.58.31-2.36l-2.12-.57a34.16,34.16,0,0,1,1.46-5.45L6.19,23c.27-.75.58-1.49.91-2.21L5.21,19.66A33.27,33.27,0,0,1,8,14.78l1.89,1.09c.46-.65.95-1.28,1.46-1.89L9.83,12.44a32,32,0,0,1,4-4L15.37,10c.61-.5,1.24-1,1.89-1.45l-1.1-1.89a32.06,32.06,0,0,1,4.89-2.83l1.09,1.9c.72-.34,1.45-.64,2.2-.92l-.56-2.11a31.92,31.92,0,0,1,5.45-1.46l.56,2.12c.78-.14,1.57-.24,2.37-.31V.85Q33.56.73,35,.73T37.8.85V3c.8.07,1.59.17,2.36.31l.57-2.12a31.92,31.92,0,0,1,5.45,1.46L45.61,4.8c.75.28,1.49.58,2.21.92l1.09-1.9a32,32,0,0,1,4.88,2.83L52.7,8.54c.65.46,1.28,1,1.89,1.45l1.55-1.54a31.92,31.92,0,0,1,4,4L58.58,14c.51.61,1,1.24,1.45,1.89l1.9-1.09a33.27,33.27,0,0,1,2.82,4.88l-1.89,1.09c.33.73.63,1.46.91,2.21l2.11-.57a32.17,32.17,0,0,1,1.46,5.45l-2.11.57c.13.78.23,1.57.31,2.36h2.18c.08.93.13,1.87.13,2.82s0,1.89-.13,2.82H65.54c-.08.8-.18,1.59-.31,2.37l2.11.57a33,33,0,0,1-1.45,5.44l-2.12-.56c-.28.75-.58,1.48-.91,2.2l1.89,1.1a33.27,33.27,0,0,1-2.82,4.88L60,51.31c-.46.65-.94,1.28-1.45,1.9l1.54,1.54a32.61,32.61,0,0,1-4,4l-1.55-1.55c-.61.51-1.24,1-1.89,1.46l1.09,1.89a32.81,32.81,0,0,1-4.88,2.83l-1.09-1.9c-.72.33-1.46.64-2.21.92l.57,2.11A31.92,31.92,0,0,1,40.73,66l-.57-2.12c-.77.13-1.56.24-2.36.31v2.19q-1.39.12-2.82.12t-2.82-.12V64.15c-.8-.07-1.59-.18-2.37-.31L29.23,66a31.92,31.92,0,0,1-5.45-1.46l.56-2.11c-.75-.28-1.48-.59-2.2-.92l-1.09,1.9a32.92,32.92,0,0,1-4.89-2.83l1.1-1.89c-.65-.46-1.28-.95-1.89-1.46l-1.55,1.55a33.41,33.41,0,0,1-4-4l1.55-1.54c-.51-.62-1-1.25-1.46-1.9L8,52.41a33.27,33.27,0,0,1-2.82-4.88l1.89-1.1c-.33-.72-.64-1.45-.91-2.2l-2.12.56A34,34,0,0,1,2.61,39.35Z"/><path class="cls-3" d="M35,66.86c-.94,0-1.9,0-2.86-.12l-.37,0V64.52c-.55-.06-1.11-.13-1.66-.22l-.57,2.12-.36-.07a33,33,0,0,1-5.52-1.47l-.35-.13.57-2.12c-.52-.19-1-.41-1.55-.64l-1.1,1.9-.34-.16a33.36,33.36,0,0,1-4.94-2.86l-.3-.21,1.1-1.9c-.46-.33-.9-.67-1.34-1l-1.55,1.55-.28-.24a34.26,34.26,0,0,1-4-4l-.24-.28,1.55-1.55c-.35-.44-.69-.88-1-1.33l-1.9,1.09-.21-.3A33.74,33.74,0,0,1,4.84,47.7l-.16-.34,1.9-1.09c-.23-.52-.44-1-.64-1.56l-2.12.57-.13-.35a32.68,32.68,0,0,1-1.47-5.51l-.07-.37,2.12-.57c-.08-.54-.16-1.1-.21-1.66H1.86l0-.37c-.08-1-.12-1.92-.12-2.86s0-1.89.12-2.85l0-.37h2.2c.05-.56.12-1.12.21-1.67l-2.12-.57.07-.36a32.68,32.68,0,0,1,1.47-5.51l.13-.35,2.12.56c.2-.51.41-1,.64-1.55l-1.9-1.1.16-.33A33.74,33.74,0,0,1,7.7,14.55l.21-.31,1.9,1.1c.33-.45.67-.89,1-1.33L9.28,12.46l.24-.28a33.51,33.51,0,0,1,4-4l.28-.24,1.55,1.55c.44-.35.88-.7,1.34-1l-1.1-1.9.3-.22a33.68,33.68,0,0,1,4.94-2.85l.34-.16,1.1,1.9c.51-.23,1-.45,1.55-.65l-.57-2.12.35-.12A32.56,32.56,0,0,1,29.16.83l.36-.06.57,2.12c.54-.09,1.1-.16,1.66-.22V.48l.37,0a32,32,0,0,1,5.71,0l.37,0V2.67c.56.06,1.12.13,1.67.22L40.44.77l.36.06a33.07,33.07,0,0,1,5.52,1.48l.34.12L46.1,4.55c.51.2,1,.42,1.55.65l1.1-1.9.33.16A32,32,0,0,1,54,6.32l.31.21-1.1,1.9c.45.32.9.67,1.33,1L56.11,7.9l.29.24a33.35,33.35,0,0,1,4,4l.24.29L59.12,14c.36.43.7.88,1,1.33L62,14.24l.22.31a33.23,33.23,0,0,1,2.86,4.94l.15.33-1.9,1.1c.23.51.45,1,.65,1.55l2.12-.56.12.35a32.7,32.7,0,0,1,1.48,5.51l.06.36-2.12.57c.09.55.16,1.11.22,1.67h2.19l0,.37c.08,1,.12,1.92.12,2.85s0,1.89-.12,2.86l0,.37H65.9c-.06.55-.13,1.11-.22,1.66l2.12.57-.06.37a33,33,0,0,1-1.48,5.51l-.12.35L64,44.71c-.2.52-.42,1-.65,1.56l1.9,1.09-.15.34a33.74,33.74,0,0,1-2.86,4.94l-.22.3-1.89-1.09c-.33.45-.67.89-1,1.33l1.55,1.55-.24.28a34.17,34.17,0,0,1-4,4l-.29.24-1.55-1.55c-.43.35-.88.7-1.33,1l1.1,1.9-.31.21a32.73,32.73,0,0,1-4.94,2.86l-.33.16L47.65,62c-.51.23-1,.44-1.55.64l.56,2.12-.34.13a32.54,32.54,0,0,1-5.52,1.47l-.36.07-.57-2.12c-.55.09-1.11.16-1.67.22v2.19l-.37,0C36.87,66.82,35.91,66.86,35,66.86ZM32.56,66a32.45,32.45,0,0,0,4.83,0V63.78l.37,0c.78-.07,1.57-.17,2.34-.31l.36-.06L41,65.49a30.9,30.9,0,0,0,4.67-1.25l-.56-2.1.34-.13c.74-.28,1.47-.58,2.18-.91L48,61l1.09,1.89a31.66,31.66,0,0,0,4.19-2.42l-1.09-1.89.3-.21c.62-.45,1.25-.93,1.86-1.44l.29-.23,1.54,1.54a32.48,32.48,0,0,0,3.42-3.42L58,53.23l.24-.28c.5-.61,1-1.24,1.43-1.87l.22-.3,1.89,1.09a33.39,33.39,0,0,0,2.42-4.18l-1.9-1.09.16-.34c.33-.72.63-1.45.9-2.17l.13-.35,2.11.57a32.82,32.82,0,0,0,1.25-4.67l-2.11-.57.06-.36c.13-.77.23-1.55.3-2.33l0-.37h2.18c.06-.82.09-1.63.09-2.42s0-1.6-.09-2.41H65.17l0-.37c-.07-.79-.17-1.57-.3-2.33l-.06-.37,2.11-.56a32.47,32.47,0,0,0-1.25-4.67l-2.11.56-.13-.34c-.27-.73-.57-1.46-.9-2.18l-.16-.33,1.9-1.09a34.8,34.8,0,0,0-2.42-4.19l-1.9,1.1-.21-.3c-.45-.64-.93-1.27-1.43-1.87L58,14l1.55-1.55A33.36,33.36,0,0,0,56.16,9l-1.55,1.54-.28-.24c-.61-.5-1.23-1-1.86-1.43l-.3-.21,1.09-1.89a31.2,31.2,0,0,0-4.19-2.42L48,6.24l-.33-.16c-.72-.33-1.46-.63-2.18-.9l-.34-.13.56-2.11A32.47,32.47,0,0,0,41,1.69L40.46,3.8l-.36-.06c-.77-.13-1.56-.23-2.34-.3l-.37,0V1.22a32.45,32.45,0,0,0-4.83,0V3.4l-.36,0c-.79.07-1.58.17-2.34.3l-.36.06-.57-2.11a32.82,32.82,0,0,0-4.67,1.25l.57,2.11-.35.13c-.72.27-1.46.57-2.17.9L22,6.24,20.88,4.35A32.2,32.2,0,0,0,16.7,6.77l1.09,1.89-.3.21c-.64.45-1.26.93-1.87,1.43l-.28.24L13.8,9a33.36,33.36,0,0,0-3.42,3.41L11.92,14l-.23.28c-.51.61-1,1.24-1.44,1.87l-.21.3-1.89-1.1A32.31,32.31,0,0,0,5.73,19.5l1.89,1.09-.15.33c-.33.72-.64,1.45-.91,2.18l-.12.34-2.11-.56a31.54,31.54,0,0,0-1.25,4.67l2.11.56-.06.37c-.13.76-.24,1.55-.31,2.33l0,.37H2.61c-.06.81-.1,1.62-.1,2.41s0,1.61.1,2.42H4.79l0,.37c.08.78.18,1.57.31,2.33l.06.36-2.11.57a32.82,32.82,0,0,0,1.25,4.67l2.11-.57.12.35c.27.72.58,1.46.91,2.17l.15.34L5.73,47.69a32.2,32.2,0,0,0,2.42,4.18L10,50.78l.21.3c.45.64.94,1.26,1.44,1.87l.23.28-1.54,1.54a32.48,32.48,0,0,0,3.42,3.42l1.54-1.54.28.23c.61.51,1.24,1,1.87,1.44l.3.21L16.7,60.42a32.88,32.88,0,0,0,4.18,2.42L22,61l.34.15c.71.33,1.45.64,2.17.91l.35.13-.57,2.11a31.84,31.84,0,0,0,4.67,1.24l.57-2.11.36.06c.77.14,1.56.24,2.33.31l.37,0Z"/><path class="cls-7" d="M2.61,39.35l2.12-.57c-.13-.78-.24-1.57-.31-2.37H2.23Q2.11,35,2.11,33.59c0-.69,0-1.38.07-2.06l.36-.36,2.81.2H64.19l3.27-.3.32.46c0,.68.07,1.37.07,2.06,0,.95,0,1.89-.13,2.82H65.54c-.08.8-.18,1.59-.31,2.37l2.11.57a32.06,32.06,0,0,1-1.46,5.44l-2.11-.56c-.28.75-.58,1.48-.91,2.2l1.89,1.1a33.27,33.27,0,0,1-2.82,4.88L60,51.31c-.46.65-.94,1.28-1.45,1.9l1.54,1.54a32.61,32.61,0,0,1-4,4l-1.55-1.55c-.61.51-1.24,1-1.89,1.46l1.09,1.89a32.81,32.81,0,0,1-4.88,2.83l-1.09-1.9c-.72.33-1.46.64-2.21.92l.57,2.11A31.92,31.92,0,0,1,40.73,66l-.57-2.12c-.77.13-1.56.24-2.36.31v2.19q-1.39.12-2.82.12t-2.82-.12V64.15c-.8-.07-1.59-.18-2.37-.31L29.23,66a31.92,31.92,0,0,1-5.45-1.46l.56-2.11c-.75-.28-1.48-.59-2.2-.92l-1.09,1.9a32.92,32.92,0,0,1-4.89-2.83l1.1-1.89c-.65-.46-1.28-.95-1.89-1.46l-1.55,1.55a33.41,33.41,0,0,1-4-4l1.55-1.54c-.51-.62-1-1.25-1.46-1.9L8,52.41a33.27,33.27,0,0,1-2.82-4.88l1.89-1.1c-.33-.72-.64-1.45-.91-2.2l-2.12.56A34,34,0,0,1,2.61,39.35Z"/><path class="cls-8" d="M2.61,39.35l2.12-.57c-.13-.78-.24-1.57-.31-2.37H2.23Q2.11,35,2.11,33.59c0-.69,0-1.38.07-2.06l.36-.36,2.81.2H64.19l3.27-.3.32.46c0,.68.07,1.37.07,2.06,0,.95,0,1.89-.13,2.82H65.54c-.08.8-.18,1.59-.31,2.37l2.11.57a32.06,32.06,0,0,1-1.46,5.44l-2.11-.56c-.28.75-.58,1.48-.91,2.2l1.89,1.1a33.27,33.27,0,0,1-2.82,4.88L60,51.31c-.46.65-.94,1.28-1.45,1.9l1.54,1.54a32.61,32.61,0,0,1-4,4l-1.55-1.55c-.61.51-1.24,1-1.89,1.46l1.09,1.89a32.81,32.81,0,0,1-4.88,2.83l-1.09-1.9c-.72.33-1.46.64-2.21.92l.57,2.11A31.92,31.92,0,0,1,40.73,66l-.57-2.12c-.77.13-1.56.24-2.36.31v2.19q-1.39.12-2.82.12t-2.82-.12V64.15c-.8-.07-1.59-.18-2.37-.31L29.23,66a31.92,31.92,0,0,1-5.45-1.46l.56-2.11c-.75-.28-1.48-.59-2.2-.92l-1.09,1.9a32.92,32.92,0,0,1-4.89-2.83l1.1-1.89c-.65-.46-1.28-.95-1.89-1.46l-1.55,1.55a33.41,33.41,0,0,1-4-4l1.55-1.54c-.51-.62-1-1.25-1.46-1.9L8,52.41a33.27,33.27,0,0,1-2.82-4.88l1.89-1.1c-.33-.72-.64-1.45-.91-2.2l-2.12.56A34,34,0,0,1,2.61,39.35Z"/><path class="cls-6" d="M35,3.64A30,30,0,0,1,64.86,31.51H56.68a21.8,21.8,0,0,0-43.41,0H5.1A30,30,0,0,1,35,3.64"/><circle class="cls-9" cx="34.98" cy="33.59" r="21.99"/><path class="cls-3" d="M35,56a22.4,22.4,0,1,1,22.39-22.4A22.43,22.43,0,0,1,35,56Zm0-44A21.59,21.59,0,1,0,56.57,33.59,21.61,21.61,0,0,0,35,12Z"/><path class="cls-4" d="M35.65,12.74c-1,7.35-20.07,11.13-17.54,25.89A7.34,7.34,0,0,0,19.73,42c3.82,4.94,7.94,6.42,15.26,8C54.82,46.52,55.1,32.12,47.38,30.66c-5-.59-9.41.3-12.78,3.35,7.23-5,15.64-1.78,12.47,5.76C45.74,42.55,40,46.39,35,47.45c-11.65-2.65-18-11-8.89-20.88,7.11-6.72,9.65-10,9.53-13.83"/><path class="cls-10" d="M35.23,18C31.56,25.77,19,29.7,23.54,39.55c2.83,3.94,6.92,6.06,11.42,7.21,17.56-5.38,13-17.65,3.73-14.11,7.74-.94,8,8.23-3.76,11.94-7.26-1.65-11-6-8.71-11.84s7.37-7.33,9-14.77"/><path class="cls-10" d="M26.12,35.79c3.06-5.22,12.11-4.38,9.43-17.92C35.78,29,26.3,30.09,26.12,35.79"/><rect class="cls-2" x="31.09" y="50.75" width="7.59" height="1.57"/><rect class="cls-2" x="32.21" y="52.87" width="5.34" height="1.57"/><path class="cls-10" d="M36.13,16c3.06,5.51,3.76,10.84-2.71,15.7A15.85,15.85,0,0,0,36.13,16"/><path class="cls-3" d="M60.74,28.32l-1,.25L59.58,28l1-.26,1.61-1.27.16.62-1.1.79,1.34.18.15.61ZM62.2,26.5l-.5.14-.15-.53-2.32.66-.16-.54,2.32-.67L61.24,25l.49-.14Zm-3.57-1.62,2.77-1,.18.54-2.77,1Zm-.09-.32L58,23.18l2.71-1.1.22.53-2.24.9.34.85Zm-1-3.49-.65.09-.27-.52,3.11-.37.24.43L58,23.06l-.29-.54.43-.49Zm.9.54.67-.75-1,.13Zm-1.87-1-.86-1.32,2.45-1.6L59.06,19l-.43.28-.55-.85-.56.36.55.85-.42.28-.55-.85-.61.39.55.85Zm-2-2.71-.36-.44,2.28-1.84.43.54a3.7,3.7,0,0,1,.3.4,1.12,1.12,0,0,1,.11.26.85.85,0,0,1,0,.5.89.89,0,0,1-.3.41,1,1,0,0,1-.57.22A.84.84,0,0,1,56,17.7L55.56,19l-.43-.53L55.71,17Zm1.17-.94.08.1a.94.94,0,0,0,.43.33.43.43,0,0,0,.4-.09.39.39,0,0,0,.17-.34.71.71,0,0,0-.21-.43l-.13-.17ZM52.1,13.06a2,2,0,0,1,.36-.29,1.59,1.59,0,0,1,.41-.16,1.39,1.39,0,0,1,.73,0,1.45,1.45,0,0,1,.65.36,1.5,1.5,0,0,1,.33.46,1.58,1.58,0,0,1,.13.57,1.46,1.46,0,0,1-.09.59,1.55,1.55,0,0,1-.31.5,1.48,1.48,0,0,1-.48.35,1.37,1.37,0,0,1-.56.15,1.51,1.51,0,0,1-.6-.09,1.49,1.49,0,0,1-.51-.31,1.55,1.55,0,0,1-.36-.5,1.43,1.43,0,0,1-.12-.58,1.38,1.38,0,0,1,.11-.57A1.55,1.55,0,0,1,52.1,13.06Zm.46.4a.83.83,0,0,0-.2.3,1.28,1.28,0,0,0-.07.34,1.22,1.22,0,0,0,.07.38.86.86,0,0,0,.21.29.82.82,0,0,0,.66.24.91.91,0,0,0,.65-.32.91.91,0,0,0,0-1.27.91.91,0,0,0-.65-.25A.85.85,0,0,0,52.56,13.46Zm.2-1.69-.32.4L52,11.84l-1.48,1.9-.45-.35,1.48-1.91-.43-.34.31-.4ZM48,12l-.47-.3L49,9.19l.46.29,0,2.23,1-1.59.48.3L49.44,12.9,49,12.62l0-2.28Zm-1.44-.81,1.32-2.61.51.26L47,11.43ZM43.79,9l.49.19,0,0a.42.42,0,0,0,0,.31.33.33,0,0,0,.2.2.36.36,0,0,0,.29,0,.37.37,0,0,0,.19-.23c.07-.17,0-.35-.23-.52l-.07-.06a1,1,0,0,1-.36-.46.72.72,0,0,1,0-.52,1,1,0,0,1,.45-.54.8.8,0,0,1,.66,0,.74.74,0,0,1,.45.41.93.93,0,0,1,0,.66l-.49-.18v0a.29.29,0,0,0,0-.24.3.3,0,0,0-.17-.16.33.33,0,0,0-.24,0,.36.36,0,0,0-.16.2.26.26,0,0,0,0,.11.3.3,0,0,0,0,.1.76.76,0,0,0,.27.29l.15.12a.82.82,0,0,1,.31.43.77.77,0,0,1,0,.51,1.08,1.08,0,0,1-.49.59.86.86,0,0,1-.72,0,.81.81,0,0,1-.5-.47A1,1,0,0,1,43.79,9Zm-3,0-.55-.15L41,6.07l.73.19.17,2.25L43.2,6.65l.73.19-.76,2.83-.54-.15.57-2L41.93,9.34l-.42-.11L41.35,7ZM38.3,8l-.3.58-.59-.07,1.48-2.77.49.06.76,3.05-.61-.08-.16-.63Zm1-.43-.23-1-.46.89Zm-1.89.92-1.58-.11L36,5.43l1.58.11,0,.52-1-.07-.05.66,1,.07,0,.51-1-.07,0,.72,1,.07ZM34,8.4h-.58l0-2.92.7,0,.49,0a1,1,0,0,1,.28.07.83.83,0,0,1,.39.32,1,1,0,0,1,.13.49.89.89,0,0,1-.17.58.84.84,0,0,1-.51.31l.76,1.12h-.69L34,7Zm0-1.5h.13a.92.92,0,0,0,.52-.14.42.42,0,0,0,.18-.37.43.43,0,0,0-.16-.34.84.84,0,0,0-.47-.1H34ZM31.61,8.6l-1,.12-.36-2.91,1-.12a2.26,2.26,0,0,1,.64,0,1.28,1.28,0,0,1,.83.66,1.85,1.85,0,0,1,.13,1.35,1.44,1.44,0,0,1-.37.57,1.08,1.08,0,0,1-.34.21A2.23,2.23,0,0,1,31.61,8.6Zm-.1-.5a.94.94,0,0,0,.67-.31A1.05,1.05,0,0,0,32.31,7a.87.87,0,0,0-1-.84l-.37,0,.23,1.91Zm-2.83-.55s0,0,0,0,0,0,0,0a2.33,2.33,0,0,1,.06.35,1.66,1.66,0,0,1,0,.32,1.52,1.52,0,0,1-.38.76,1.47,1.47,0,0,1-.72.43,1.45,1.45,0,0,1-.62,0,1.48,1.48,0,0,1-.59-.23,1.45,1.45,0,0,1-.4-.38,1.64,1.64,0,0,1-.24-.52,1.7,1.7,0,0,1,0-.59A1.63,1.63,0,0,1,26,7.23a1.34,1.34,0,0,1,.39-.43,1.49,1.49,0,0,1,.54-.25,1.37,1.37,0,0,1,1.53.52l-.67.18a.78.78,0,0,0-.35-.15,1,1,0,0,0-.39,0,.91.91,0,0,0-.55.43,1,1,0,0,0-.08.71.92.92,0,0,0,.43.57.86.86,0,0,0,.7.09.84.84,0,0,0,.43-.26.81.81,0,0,0,.21-.46L27,8.49,26.91,8Zm-4.4,3.22-.51.23L22.58,8.32l.49-.22,1.87,1.22-.76-1.71.51-.23,1.19,2.67-.48.22L23.5,9Zm-1.46.71L21.49,8.87,22,8.61l1.32,2.61ZM20.34,13l-.48.3-1.55-2.48.64-.4,1.76,1.41-.5-2.2.64-.4,1.55,2.48-.48.3-1.11-1.81.5,2.19-.36.23-1.76-1.41Zm-1.83,1.47-.44.37-1.88-2.24.53-.45a3.7,3.7,0,0,1,.4-.3.76.76,0,0,1,.26-.12.78.78,0,0,1,.5,0,.87.87,0,0,1,.41.29.89.89,0,0,1,.23.56.86.86,0,0,1-.2.56l1.29.4-.52.44-1.45-.56Zm-1-1.15.1-.08a.86.86,0,0,0,.32-.44.46.46,0,0,0-.43-.56.8.8,0,0,0-.43.22l-.17.13Zm-2.89,2.92a1.59,1.59,0,0,1-.28-.36,1.5,1.5,0,0,1-.15-.42,1.39,1.39,0,0,1,0-.73,1.46,1.46,0,0,1,.38-.63,1.43,1.43,0,0,1,.47-.33,1.39,1.39,0,0,1,.57-.12,1.42,1.42,0,0,1,.58.1,1.47,1.47,0,0,1,.5.32,1.65,1.65,0,0,1,.35.48,1.58,1.58,0,0,1,.13.57,1.47,1.47,0,0,1-.1.59,1.52,1.52,0,0,1-.32.51,1.68,1.68,0,0,1-.5.35,1.47,1.47,0,0,1-.59.11,1.56,1.56,0,0,1-.57-.11A1.76,1.76,0,0,1,14.65,16.25Zm.41-.45a.89.89,0,0,0,.29.2,1.05,1.05,0,0,0,.35.08.94.94,0,0,0,.37-.07.77.77,0,0,0,.3-.19.88.88,0,0,0,.26-.66,1,1,0,0,0-.31-.66.87.87,0,0,0-.65-.25.83.83,0,0,0-.62.27.89.89,0,0,0-.27.65A.88.88,0,0,0,15.06,15.8Zm-.47,2.93-2.28-1.84,1-1.23.4.32-.64.79.52.42.64-.79.39.32-.64.79,1,.78ZM12.64,20l.28-.43,0,0a.43.43,0,0,0,.3.08.3.3,0,0,0,.23-.16.33.33,0,0,0,.07-.28.38.38,0,0,0-.18-.24q-.24-.15-.57.12s-.05,0-.06.06a1.18,1.18,0,0,1-.53.26.77.77,0,0,1-.51-.14,1,1,0,0,1-.43-.55.82.82,0,0,1,.12-.64.77.77,0,0,1,.5-.36,1,1,0,0,1,.65.14l-.28.44h0a.31.31,0,0,0-.24-.06.29.29,0,0,0-.19.14.29.29,0,0,0-.05.23.31.31,0,0,0,.16.2.24.24,0,0,0,.1.05h.11a1,1,0,0,0,.33-.21l.15-.13a.88.88,0,0,1,.48-.21.78.78,0,0,1,.49.15,1,1,0,0,1,.48.6.88.88,0,0,1-.14.71.81.81,0,0,1-.57.39A1,1,0,0,1,12.64,20Zm-.26,2.31-.26.5L9.53,21.45,9.79,21,12,20.78l-1.65-.88.26-.5,2.58,1.38-.25.47-2.27.17Zm-1.61,2.17.48.44-.22.55L8.74,23.33l.19-.46,3.13.06-.23.57h-.65Zm-.17-1-1,0,.74.68Zm.06,3.36-.16.55-2.81-.8.19-.67A2.73,2.73,0,0,1,8,25.43a.87.87,0,0,1,.15-.25.84.84,0,0,1,.92-.26.83.83,0,0,1,.5.34.8.8,0,0,1,.15.57l1.3-.39-.19.66-1.52.35Zm-1.45-.41,0-.13a.92.92,0,0,0,0-.54.38.38,0,0,0-.3-.27.39.39,0,0,0-.37.05.83.83,0,0,0-.24.42l-.06.21ZM7.6,27l.5.12L8,27.63l2.35.55-.13.55-2.35-.54-.13.54-.5-.12Z"/><path class="cls-9" d="M58.26,47.68l-1.68-.44,1.14,1.31Zm1,.28-.85,1.38.52.6-.77,1.24-3-3.93L56,45.92l4.85,1L60,48.16Zm-6,4.53.42-.43c0-.05.11-.16.21-.32a.36.36,0,0,0,.06-.27.47.47,0,0,0-.13-.25.43.43,0,0,0-.35-.14.84.84,0,0,0-.46.3l-.44.46Zm1,2.95-3.34-3.22,1.66-1.72a3.26,3.26,0,0,1,.78-.65,1.13,1.13,0,0,1,.7-.12,1.31,1.31,0,0,1,.69.37,1.28,1.28,0,0,1,.37.58,1.26,1.26,0,0,1,0,.64,1.46,1.46,0,0,1-.22.49,1.81,1.81,0,0,1,.38-.15,1.36,1.36,0,0,1,.34,0,1.65,1.65,0,0,1,.34,0l1.45.43-1.12,1.17-1.55-.43a1,1,0,0,0-.44-.06.55.55,0,0,0-.32.18l-.08.09,1.35,1.3ZM46.82,55,50,52.89l.54.83-2,1.31.41.62,1.86-1.22.51.8-1.86,1.21.5.76,2.07-1.34.57.87-3.27,2.14Zm-2.89,4.3,1.31,0a2,2,0,0,1-.15,1,1.77,1.77,0,0,1-.5.7,2.5,2.5,0,0,1-.94.45,3.19,3.19,0,0,1-1.25.12,2,2,0,0,1-1-.53,2.56,2.56,0,0,1-.71-1.27,2.33,2.33,0,0,1,.12-1.86,2.78,2.78,0,0,1,2.92-1.09,2,2,0,0,1,1,.85l-1.14.61a1,1,0,0,0-.22-.26.75.75,0,0,0-.35-.16.9.9,0,0,0-.4,0,.83.83,0,0,0-.61.58,1.6,1.6,0,0,0,.05.93,1.71,1.71,0,0,0,.51.95.77.77,0,0,0,.71.1.83.83,0,0,0,.54-.38A1.46,1.46,0,0,0,43.93,59.29Zm-6.67-1.38,1.42-.16.54,4.6-1.42.17Zm-5.8-.09,1.43.11-.12,1.61,1.56.12L34.45,58l1.43.11-.35,4.62-1.43-.1.14-1.88-1.56-.11-.14,1.87-1.43-.11Zm-4.08,1.09.34.09a.89.89,0,0,0,.61,0,.46.46,0,0,0,.25-.31.51.51,0,0,0,0-.4c-.06-.12-.23-.21-.49-.28l-.4-.11Zm-.89-2.28,2.31.6a1.64,1.64,0,0,1,1,.65A1.4,1.4,0,0,1,29.94,59a1.42,1.42,0,0,1-.69,1,1.76,1.76,0,0,1-1.34.06l-.76-.19-.44,1.65-1.39-.36ZM22.71,58,23,56.27l-1.2,1.26Zm-.18,1-1.45-.73-.55.58-1.31-.65,3.64-3.37,1.4.7-.52,4.93L22.4,59.8Zm-4.88-5.63.45.41a2.4,2.4,0,0,0,.33.2.36.36,0,0,0,.27,0,.45.45,0,0,0,.24-.14.42.42,0,0,0,.13-.35.88.88,0,0,0-.32-.45l-.47-.42Zm-2.9,1.1L17.83,51l1.78,1.59a3.53,3.53,0,0,1,.68.76,1,1,0,0,1,.14.69,1.27,1.27,0,0,1-.34.71,1.36,1.36,0,0,1-.56.39,1.38,1.38,0,0,1-.64,0,1.66,1.66,0,0,1-.5-.19,1.32,1.32,0,0,1,.16.37,1.05,1.05,0,0,1,0,.33,2,2,0,0,1,0,.35l-.37,1.46-1.21-1.07.37-1.57a1.05,1.05,0,0,0,0-.44.6.6,0,0,0-.19-.31l-.09-.08-1.25,1.4ZM13.2,50.18l.75-.61,1.39,1.73L13.8,52.53a4.41,4.41,0,0,1-1.16-.5,3.75,3.75,0,0,1-.85-.81A2.8,2.8,0,0,1,11.16,50a1.92,1.92,0,0,1,.15-1.15,2.73,2.73,0,0,1,.82-1,2.69,2.69,0,0,1,1.22-.58,2.07,2.07,0,0,1,1.24.18,3,3,0,0,1,1,.85,3.45,3.45,0,0,1,.61,1,1.41,1.41,0,0,1,.06.76,2,2,0,0,1-.34.76l-1.06-.92a.7.7,0,0,0,.13-.48.88.88,0,0,0-.21-.49A1,1,0,0,0,14,48.5a1.59,1.59,0,0,0-1,.43,1.63,1.63,0,0,0-.66.9,1,1,0,0,0,.24.81A1.28,1.28,0,0,0,13,51a1.86,1.86,0,0,0,.49.24l.34-.27Z"/></svg>